# xmcd
#
# Track frame offsets:
#	150
#	3932
#	13080
#	27901
#	30221
#	39277
#	48072
#	70365
#	89631
#	90992
#	109363
#	127778
#	140109
#	156841
#	160715
#	168343
#	176012
#	195811
#	219468
#
# Disc length: 3211 seconds
#
# Revision: 1
# Processed by: cddbd v1.5.2PL0 Copyright (c) Steve Scherf et al.
# Submitted via: EasyCDDAExtractor 16.1.0.1
#
DISCID=e60c8913
DTITLE=Kunteynir - Эдвард Руки Ножницы Бумага
DYEAR=2004
DGENRE=Abstract Hip-Hop - Trash
TTITLE0=	Эдвард Руки Ножницы Бумага
TTITLE1=1000$ (feat. 158)
TTITLE2=в(а)ышi рукi 
TTITLE3=Андрей Борисович ON DA MIC 
TTITLE4=Cколько Дыма... 
TTITLE5=МТУ
TTITLE6=С.Е.М.Е.Н.А. 
TTITLE7=Всем Хватит feat. СЕВZКВАД
TTITLE8=Алма-Ата ON DA MIC 
TTITLE9=Unknown Track feat. n'keat
TTITLE10=Cколько Дыма feat. Karabis
TTITLE11=a5
TTITLE12=ю ноу feat. tfriz
TTITLE13=Больсле Мысле 
TTITLE14=с.live - cлив feat. Sector Preeza
TTITLE15=под землёй 
TTITLE16=aу-тро feat. Сухарь, Блёв МС
TTITLE17=Ïðèâåòèêè
TTITLE18=Bonus Video
EXTD=
EXTT0=
EXTT1=
EXTT2=
EXTT3=
EXTT4=
EXTT5=
EXTT6=
EXTT7=
EXTT8=
EXTT9=
EXTT10=
EXTT11=
EXTT12=
EXTT13=
EXTT14=
EXTT15=
EXTT16=
EXTT17=
EXTT18=
PLAYORDER=
